<?xml version="1.0" standalone="no"?>
<!DOCTYPE svg PUBLIC "-//W3C//DTD SVG 20010904//EN"
 "http://www.w3.org/TR/2001/REC-SVG-20010904/DTD/svg10.dtd">
<svg version="1.0" xmlns="http://www.w3.org/2000/svg"
 width="22.000000pt" height="22.000000pt" viewBox="0 0 128.000000 128.000000"
 preserveAspectRatio="xMidYMid meet">

<g transform="translate(0.000000,128.000000) scale(0.100000,-0.100000)"
fill="#000000" stroke="none">
<path d="M523 1256 c-184 -35 -358 -168 -442 -336 -122 -248 -77 -525 119
-720 126 -126 263 -183 440 -183 177 0 314 57 440 183 126 126 183 263 183
440 0 176 -57 314 -183 441 -148 149 -354 213 -557 175z m258 -112 c176 -52
311 -187 363 -363 21 -71 21 -211 0 -282 -52 -176 -187 -311 -363 -363 -71
-21 -211 -21 -282 0 -177 52 -311 186 -363 363 -21 71 -21 211 0 282 67 229
264 378 500 379 54 0 112 -6 145 -16z"/>
<path d="M367 912 c-10 -10 -17 -27 -17 -37 0 -10 48 -67 107 -126 l107 -109
-107 -109 c-64 -64 -107 -116 -107 -128 0 -24 30 -53 55 -53 10 0 67 48 126
107 l109 107 109 -107 c64 -64 116 -107 128 -107 24 0 53 30 53 55 0 10 -48
67 -107 126 l-107 109 107 109 c64 64 107 116 107 128 0 24 -30 53 -55 53 -10
0 -67 -48 -126 -107 l-109 -107 -109 107 c-111 110 -134 122 -164 89z"/>
</g>
</svg>
